<svg xmlns="http://www.w3.org/2000/svg" xmlns:xlink="http://www.w3.org/1999/xlink" width="33" height="34" viewBox="0 0 33 34"><defs><path id="a" d="M146.77 45.21L143 38.93l2.22-1.93 5.79 8.21-5.79 8.2-2.22-1.93 3.77-6.27"/><path id="b" d="M172.25 45.21l3.76-6.28-2.22-1.93-5.79 8.21 5.79 8.2 2.22-1.93-3.76-6.27"/><path id="c" d="M159.21 57.25l-6.28 3.76-1.93-2.22 8.21-5.79 8.2 5.79-1.93 2.22-6.27-3.76"/><path id="d" d="M159.21 32.77l6.27-3.77 1.93 2.22-8.2 5.79-8.21-5.79 1.93-2.22 6.28 3.77"/></defs><g transform="translate(-143 -28)"><use fill="#fffffe" xlink:href="#a"/></g><g transform="translate(-143 -28)"><use fill="#8e8f8e" xlink:href="#b"/></g><g transform="translate(-143 -28)"><use fill="#fffffe" xlink:href="#c"/></g><g transform="translate(-143 -28)"><use fill="#fffffe" xlink:href="#d"/></g></svg>