<svg version="1.1" xmlns="http://www.w3.org/2000/svg" width="20" height="20" viewBox="0 0 1214 1024">
    <path d="M1088.042 378.308h-115.249l17.835-140.785h132.678zM1032.512 598.403h-87.416l17.97-140.785h104.305zM893.213 378.308h-116.195v-140.785h134.164zM864.705 598.403h-87.687v-140.785h106.061zM697.574 378.308h-116.6l-17.429-140.785h134.029v140.785zM697.574 598.403h-88.092l-17.97-140.785h105.926v140.785zM442.351 598.403l-35.669-140.785h105.116l17.835 140.785zM386.685 378.308l-35.399-140.785h132.678l17.699 140.785zM1174.513 158.079h-843.493l-32.426-128.084c-4.446-17.442-20.014-30.135-38.548-30.135-1.174 0-2.337 0.051-3.485 0.151l-216.973-0.010c-0.691-0.043-1.498-0.068-2.312-0.068-21.863 0-39.587 17.724-39.587 39.587s17.724 39.587 39.587 39.587c0.813 0 1.621-0.025 2.422-0.073l189.99 0.005 175.643 695.682c-11.989 6.574-22.299 14.343-31.348 23.376-24.036 23.951-38.91 57.088-38.91 93.699 0 73.052 59.221 132.273 132.273 132.273s132.273-59.221 132.273-132.273c0-0.024 0-0.049 0-0.073 0-0.007 0-0.020 0-0.033 0-20.282-4.532-39.505-12.639-56.712l300.424 0.813c-7.801 16.373-12.357 35.581-12.357 55.854 0 73.127 59.281 132.408 132.408 132.408s132.408-59.281 132.408-132.408c0-71.49-56.656-129.747-127.518-132.319-4.438-1.706-9.312-2.697-14.416-2.709h-515.72l-19.861-78.904h600.97c18.379-0.297 33.763-12.781 38.439-29.71l110.722-438.312c1.117-3.384 1.761-7.278 1.761-11.323 0-0.199-0.002-0.398-0.005-0.596 0.001-0.010 0.001-0.058 0.001-0.105 0-21.891-17.708-39.646-39.58-39.722z"></path>
</svg>
